<mxfile host="app.diagrams.net" agent="Mozilla/5.0 (Windows NT 10.0; Win64; x64) AppleWebKit/537.36 (KHTML, like Gecko) Chrome/136.0.0.0 Safari/537.36" version="27.0.6">
  <diagram name="Page-1" id="5w0yTToLnDvUxXgXbG-X">
    <mxGraphModel dx="1678" dy="2050" grid="0" gridSize="10" guides="1" tooltips="1" connect="1" arrows="1" fold="1" page="1" pageScale="1" pageWidth="827" pageHeight="1169" math="0" shadow="0">
      <root>
        <mxCell id="0" />
        <mxCell id="1" parent="0" />
        <mxCell id="aAG-oYolqGSNY-42_qto-1" value="" style="rounded=0;whiteSpace=wrap;html=1;" vertex="1" parent="1">
          <mxGeometry x="201" y="-30" width="636" height="732" as="geometry" />
        </mxCell>
        <mxCell id="aAG-oYolqGSNY-42_qto-15" style="edgeStyle=orthogonalEdgeStyle;rounded=0;orthogonalLoop=1;jettySize=auto;html=1;exitX=0.5;exitY=0.5;exitDx=0;exitDy=0;exitPerimeter=0;entryX=0;entryY=0.5;entryDx=0;entryDy=0;curved=1;" edge="1" parent="1" source="aAG-oYolqGSNY-42_qto-2" target="aAG-oYolqGSNY-42_qto-7">
          <mxGeometry relative="1" as="geometry" />
        </mxCell>
        <mxCell id="aAG-oYolqGSNY-42_qto-16" style="edgeStyle=orthogonalEdgeStyle;rounded=0;orthogonalLoop=1;jettySize=auto;html=1;exitX=0.5;exitY=0.5;exitDx=0;exitDy=0;exitPerimeter=0;entryX=0;entryY=0.5;entryDx=0;entryDy=0;curved=1;" edge="1" parent="1" source="aAG-oYolqGSNY-42_qto-2" target="aAG-oYolqGSNY-42_qto-8">
          <mxGeometry relative="1" as="geometry" />
        </mxCell>
        <mxCell id="aAG-oYolqGSNY-42_qto-17" style="edgeStyle=orthogonalEdgeStyle;rounded=0;orthogonalLoop=1;jettySize=auto;html=1;exitX=0.5;exitY=0.5;exitDx=0;exitDy=0;exitPerimeter=0;entryX=0;entryY=0.5;entryDx=0;entryDy=0;curved=1;" edge="1" parent="1" source="aAG-oYolqGSNY-42_qto-2" target="aAG-oYolqGSNY-42_qto-9">
          <mxGeometry relative="1" as="geometry" />
        </mxCell>
        <mxCell id="aAG-oYolqGSNY-42_qto-18" style="edgeStyle=orthogonalEdgeStyle;rounded=0;orthogonalLoop=1;jettySize=auto;html=1;exitX=0.5;exitY=0.5;exitDx=0;exitDy=0;exitPerimeter=0;entryX=0;entryY=0.5;entryDx=0;entryDy=0;curved=1;" edge="1" parent="1" source="aAG-oYolqGSNY-42_qto-2" target="aAG-oYolqGSNY-42_qto-10">
          <mxGeometry relative="1" as="geometry" />
        </mxCell>
        <mxCell id="aAG-oYolqGSNY-42_qto-19" style="edgeStyle=orthogonalEdgeStyle;rounded=0;orthogonalLoop=1;jettySize=auto;html=1;exitX=0.5;exitY=0.5;exitDx=0;exitDy=0;exitPerimeter=0;entryX=0;entryY=0.5;entryDx=0;entryDy=0;curved=1;" edge="1" parent="1" source="aAG-oYolqGSNY-42_qto-2" target="aAG-oYolqGSNY-42_qto-12">
          <mxGeometry relative="1" as="geometry" />
        </mxCell>
        <mxCell id="aAG-oYolqGSNY-42_qto-20" style="edgeStyle=orthogonalEdgeStyle;rounded=0;orthogonalLoop=1;jettySize=auto;html=1;exitX=0.5;exitY=0.5;exitDx=0;exitDy=0;exitPerimeter=0;entryX=0;entryY=0.5;entryDx=0;entryDy=0;curved=1;" edge="1" parent="1" source="aAG-oYolqGSNY-42_qto-2" target="aAG-oYolqGSNY-42_qto-13">
          <mxGeometry relative="1" as="geometry" />
        </mxCell>
        <mxCell id="aAG-oYolqGSNY-42_qto-31" style="edgeStyle=orthogonalEdgeStyle;rounded=0;orthogonalLoop=1;jettySize=auto;html=1;exitX=0.5;exitY=0.5;exitDx=0;exitDy=0;exitPerimeter=0;entryX=0;entryY=0.5;entryDx=0;entryDy=0;curved=1;" edge="1" parent="1" source="aAG-oYolqGSNY-42_qto-2" target="aAG-oYolqGSNY-42_qto-28">
          <mxGeometry relative="1" as="geometry" />
        </mxCell>
        <mxCell id="aAG-oYolqGSNY-42_qto-32" style="edgeStyle=orthogonalEdgeStyle;rounded=0;orthogonalLoop=1;jettySize=auto;html=1;exitX=0.5;exitY=0.5;exitDx=0;exitDy=0;exitPerimeter=0;entryX=0;entryY=0.5;entryDx=0;entryDy=0;curved=1;" edge="1" parent="1" source="aAG-oYolqGSNY-42_qto-2" target="aAG-oYolqGSNY-42_qto-29">
          <mxGeometry relative="1" as="geometry" />
        </mxCell>
        <mxCell id="aAG-oYolqGSNY-42_qto-33" style="edgeStyle=orthogonalEdgeStyle;rounded=0;orthogonalLoop=1;jettySize=auto;html=1;exitX=0.5;exitY=0.5;exitDx=0;exitDy=0;exitPerimeter=0;entryX=0;entryY=0.5;entryDx=0;entryDy=0;curved=1;" edge="1" parent="1" source="aAG-oYolqGSNY-42_qto-2" target="aAG-oYolqGSNY-42_qto-30">
          <mxGeometry relative="1" as="geometry" />
        </mxCell>
        <mxCell id="aAG-oYolqGSNY-42_qto-2" value="Administrateurs" style="shape=umlActor;verticalLabelPosition=bottom;verticalAlign=top;html=1;outlineConnect=0;" vertex="1" parent="1">
          <mxGeometry x="85" y="103" width="30" height="60" as="geometry" />
        </mxCell>
        <mxCell id="aAG-oYolqGSNY-42_qto-26" style="edgeStyle=orthogonalEdgeStyle;rounded=0;orthogonalLoop=1;jettySize=auto;html=1;exitX=0.5;exitY=0.5;exitDx=0;exitDy=0;exitPerimeter=0;entryX=0;entryY=0.5;entryDx=0;entryDy=0;curved=1;" edge="1" parent="1" source="aAG-oYolqGSNY-42_qto-3" target="aAG-oYolqGSNY-42_qto-24">
          <mxGeometry relative="1" as="geometry" />
        </mxCell>
        <mxCell id="aAG-oYolqGSNY-42_qto-27" style="edgeStyle=orthogonalEdgeStyle;rounded=0;orthogonalLoop=1;jettySize=auto;html=1;exitX=0.5;exitY=0.5;exitDx=0;exitDy=0;exitPerimeter=0;entryX=0;entryY=0.5;entryDx=0;entryDy=0;curved=1;" edge="1" parent="1" source="aAG-oYolqGSNY-42_qto-3" target="aAG-oYolqGSNY-42_qto-23">
          <mxGeometry relative="1" as="geometry" />
        </mxCell>
        <mxCell id="aAG-oYolqGSNY-42_qto-3" value="Utilisateurs" style="shape=umlActor;verticalLabelPosition=bottom;verticalAlign=top;html=1;outlineConnect=0;" vertex="1" parent="1">
          <mxGeometry x="84" y="545" width="30" height="60" as="geometry" />
        </mxCell>
        <mxCell id="aAG-oYolqGSNY-42_qto-35" style="edgeStyle=orthogonalEdgeStyle;rounded=0;orthogonalLoop=1;jettySize=auto;html=1;exitX=1;exitY=0.5;exitDx=0;exitDy=0;entryX=0;entryY=0.5;entryDx=0;entryDy=0;dashed=1;curved=1;" edge="1" parent="1" source="aAG-oYolqGSNY-42_qto-7" target="aAG-oYolqGSNY-42_qto-34">
          <mxGeometry relative="1" as="geometry" />
        </mxCell>
        <mxCell id="aAG-oYolqGSNY-42_qto-37" style="edgeStyle=orthogonalEdgeStyle;rounded=0;orthogonalLoop=1;jettySize=auto;html=1;exitX=1;exitY=0.5;exitDx=0;exitDy=0;entryX=0;entryY=0.5;entryDx=0;entryDy=0;curved=1;dashed=1;" edge="1" parent="1" source="aAG-oYolqGSNY-42_qto-7" target="aAG-oYolqGSNY-42_qto-36">
          <mxGeometry relative="1" as="geometry" />
        </mxCell>
        <mxCell id="aAG-oYolqGSNY-42_qto-39" style="edgeStyle=orthogonalEdgeStyle;rounded=0;orthogonalLoop=1;jettySize=auto;html=1;exitX=1;exitY=0.5;exitDx=0;exitDy=0;entryX=0;entryY=0.5;entryDx=0;entryDy=0;dashed=1;curved=1;" edge="1" parent="1" source="aAG-oYolqGSNY-42_qto-7" target="aAG-oYolqGSNY-42_qto-38">
          <mxGeometry relative="1" as="geometry" />
        </mxCell>
        <mxCell id="aAG-oYolqGSNY-42_qto-47" style="edgeStyle=orthogonalEdgeStyle;rounded=0;orthogonalLoop=1;jettySize=auto;html=1;exitX=1;exitY=0.5;exitDx=0;exitDy=0;entryX=0;entryY=0.5;entryDx=0;entryDy=0;curved=1;dashed=1;" edge="1" parent="1" source="aAG-oYolqGSNY-42_qto-7" target="aAG-oYolqGSNY-42_qto-46">
          <mxGeometry relative="1" as="geometry" />
        </mxCell>
        <mxCell id="aAG-oYolqGSNY-42_qto-7" value="Ajouter un film&amp;nbsp;" style="ellipse;whiteSpace=wrap;html=1;" vertex="1" parent="1">
          <mxGeometry x="320" y="75" width="127" height="39" as="geometry" />
        </mxCell>
        <mxCell id="aAG-oYolqGSNY-42_qto-43" style="edgeStyle=orthogonalEdgeStyle;rounded=0;orthogonalLoop=1;jettySize=auto;html=1;exitX=1;exitY=0.5;exitDx=0;exitDy=0;entryX=0;entryY=0.5;entryDx=0;entryDy=0;dashed=1;curved=1;" edge="1" parent="1" source="aAG-oYolqGSNY-42_qto-8" target="aAG-oYolqGSNY-42_qto-40">
          <mxGeometry relative="1" as="geometry" />
        </mxCell>
        <mxCell id="aAG-oYolqGSNY-42_qto-44" style="edgeStyle=orthogonalEdgeStyle;rounded=0;orthogonalLoop=1;jettySize=auto;html=1;exitX=1;exitY=0.5;exitDx=0;exitDy=0;entryX=0;entryY=0.5;entryDx=0;entryDy=0;curved=1;dashed=1;" edge="1" parent="1" source="aAG-oYolqGSNY-42_qto-8" target="aAG-oYolqGSNY-42_qto-41">
          <mxGeometry relative="1" as="geometry" />
        </mxCell>
        <mxCell id="aAG-oYolqGSNY-42_qto-45" style="edgeStyle=orthogonalEdgeStyle;rounded=0;orthogonalLoop=1;jettySize=auto;html=1;exitX=1;exitY=0.5;exitDx=0;exitDy=0;entryX=0;entryY=0.5;entryDx=0;entryDy=0;curved=1;dashed=1;" edge="1" parent="1" source="aAG-oYolqGSNY-42_qto-8" target="aAG-oYolqGSNY-42_qto-42">
          <mxGeometry relative="1" as="geometry" />
        </mxCell>
        <mxCell id="aAG-oYolqGSNY-42_qto-49" style="edgeStyle=orthogonalEdgeStyle;rounded=0;orthogonalLoop=1;jettySize=auto;html=1;exitX=1;exitY=0.5;exitDx=0;exitDy=0;entryX=0;entryY=0.5;entryDx=0;entryDy=0;curved=1;dashed=1;" edge="1" parent="1" source="aAG-oYolqGSNY-42_qto-8" target="aAG-oYolqGSNY-42_qto-48">
          <mxGeometry relative="1" as="geometry" />
        </mxCell>
        <mxCell id="aAG-oYolqGSNY-42_qto-8" value="Modifier un film&amp;nbsp;" style="ellipse;whiteSpace=wrap;html=1;" vertex="1" parent="1">
          <mxGeometry x="320" y="120" width="127" height="39" as="geometry" />
        </mxCell>
        <mxCell id="aAG-oYolqGSNY-42_qto-9" value="Supprimer un film&amp;nbsp;" style="ellipse;whiteSpace=wrap;html=1;" vertex="1" parent="1">
          <mxGeometry x="320" y="165" width="127" height="39" as="geometry" />
        </mxCell>
        <mxCell id="aAG-oYolqGSNY-42_qto-10" value="Ajouter un genre&amp;nbsp;" style="ellipse;whiteSpace=wrap;html=1;" vertex="1" parent="1">
          <mxGeometry x="320" y="209" width="127" height="39" as="geometry" />
        </mxCell>
        <mxCell id="aAG-oYolqGSNY-42_qto-12" value="Modifier un genre" style="ellipse;whiteSpace=wrap;html=1;" vertex="1" parent="1">
          <mxGeometry x="320" y="257" width="127" height="39" as="geometry" />
        </mxCell>
        <mxCell id="aAG-oYolqGSNY-42_qto-13" value="Supprimer un genre&amp;nbsp;" style="ellipse;whiteSpace=wrap;html=1;" vertex="1" parent="1">
          <mxGeometry x="320" y="304.5" width="127" height="39" as="geometry" />
        </mxCell>
        <mxCell id="aAG-oYolqGSNY-42_qto-54" style="edgeStyle=orthogonalEdgeStyle;rounded=0;orthogonalLoop=1;jettySize=auto;html=1;exitX=1;exitY=0.5;exitDx=0;exitDy=0;entryX=0;entryY=0.5;entryDx=0;entryDy=0;curved=1;" edge="1" parent="1" source="aAG-oYolqGSNY-42_qto-22" target="aAG-oYolqGSNY-42_qto-51">
          <mxGeometry relative="1" as="geometry" />
        </mxCell>
        <mxCell id="aAG-oYolqGSNY-42_qto-22" value="Consulter la liste de films&amp;nbsp;" style="ellipse;whiteSpace=wrap;html=1;" vertex="1" parent="1">
          <mxGeometry x="496" y="555.5" width="127" height="39" as="geometry" />
        </mxCell>
        <mxCell id="aAG-oYolqGSNY-42_qto-50" style="edgeStyle=orthogonalEdgeStyle;rounded=0;orthogonalLoop=1;jettySize=auto;html=1;exitX=1;exitY=0.5;exitDx=0;exitDy=0;entryX=0;entryY=0.5;entryDx=0;entryDy=0;" edge="1" parent="1" source="aAG-oYolqGSNY-42_qto-23" target="aAG-oYolqGSNY-42_qto-22">
          <mxGeometry relative="1" as="geometry" />
        </mxCell>
        <mxCell id="aAG-oYolqGSNY-42_qto-23" value="Se connecter" style="ellipse;whiteSpace=wrap;html=1;" vertex="1" parent="1">
          <mxGeometry x="319" y="555.5" width="127" height="39" as="geometry" />
        </mxCell>
        <mxCell id="aAG-oYolqGSNY-42_qto-24" value="S&#39;inscrire" style="ellipse;whiteSpace=wrap;html=1;" vertex="1" parent="1">
          <mxGeometry x="319" y="616" width="127" height="39" as="geometry" />
        </mxCell>
        <mxCell id="aAG-oYolqGSNY-42_qto-28" value="Ajouter un réalisateur" style="ellipse;whiteSpace=wrap;html=1;" vertex="1" parent="1">
          <mxGeometry x="320" y="352" width="127" height="39" as="geometry" />
        </mxCell>
        <mxCell id="aAG-oYolqGSNY-42_qto-29" value="Modifier un réalisateur" style="ellipse;whiteSpace=wrap;html=1;" vertex="1" parent="1">
          <mxGeometry x="319" y="396" width="127" height="39" as="geometry" />
        </mxCell>
        <mxCell id="aAG-oYolqGSNY-42_qto-30" value="Supprimer un&amp;nbsp; réalisateur" style="ellipse;whiteSpace=wrap;html=1;" vertex="1" parent="1">
          <mxGeometry x="320" y="442" width="127" height="39" as="geometry" />
        </mxCell>
        <mxCell id="aAG-oYolqGSNY-42_qto-34" value="Ajouter la description du film" style="ellipse;whiteSpace=wrap;html=1;" vertex="1" parent="1">
          <mxGeometry x="515" y="37.5" width="127" height="39" as="geometry" />
        </mxCell>
        <mxCell id="aAG-oYolqGSNY-42_qto-36" value="Ajouter une image&amp;nbsp;" style="ellipse;whiteSpace=wrap;html=1;" vertex="1" parent="1">
          <mxGeometry x="515" y="81.5" width="127" height="39" as="geometry" />
        </mxCell>
        <mxCell id="aAG-oYolqGSNY-42_qto-38" value="Ajouter le réalisateur du film&amp;nbsp;" style="ellipse;whiteSpace=wrap;html=1;" vertex="1" parent="1">
          <mxGeometry x="515" y="124.5" width="127" height="39" as="geometry" />
        </mxCell>
        <mxCell id="aAG-oYolqGSNY-42_qto-40" value="Modifier la description du film" style="ellipse;whiteSpace=wrap;html=1;" vertex="1" parent="1">
          <mxGeometry x="515" y="229" width="127" height="39" as="geometry" />
        </mxCell>
        <mxCell id="aAG-oYolqGSNY-42_qto-41" value="Modifier une image&amp;nbsp;" style="ellipse;whiteSpace=wrap;html=1;" vertex="1" parent="1">
          <mxGeometry x="515" y="273" width="127" height="39" as="geometry" />
        </mxCell>
        <mxCell id="aAG-oYolqGSNY-42_qto-42" value="Modiifer le réalisateur du film&amp;nbsp;" style="ellipse;whiteSpace=wrap;html=1;" vertex="1" parent="1">
          <mxGeometry x="515" y="316" width="127" height="39" as="geometry" />
        </mxCell>
        <mxCell id="aAG-oYolqGSNY-42_qto-46" value="Ajouter le genre du film" style="ellipse;whiteSpace=wrap;html=1;" vertex="1" parent="1">
          <mxGeometry x="513" y="170" width="127" height="39" as="geometry" />
        </mxCell>
        <mxCell id="aAG-oYolqGSNY-42_qto-48" value="Modifier le genre du film" style="ellipse;whiteSpace=wrap;html=1;" vertex="1" parent="1">
          <mxGeometry x="515" y="364" width="127" height="39" as="geometry" />
        </mxCell>
        <mxCell id="aAG-oYolqGSNY-42_qto-51" value="Consulter les détails du film&amp;nbsp;" style="ellipse;whiteSpace=wrap;html=1;" vertex="1" parent="1">
          <mxGeometry x="672" y="556.75" width="155" height="36.5" as="geometry" />
        </mxCell>
        <mxCell id="aAG-oYolqGSNY-42_qto-55" value="&lt;b&gt;&lt;font style=&quot;font-size: 16px;&quot;&gt;Cas d&#39;utilisation&amp;nbsp;&lt;/font&gt;&lt;/b&gt;" style="text;html=1;align=center;verticalAlign=middle;whiteSpace=wrap;rounded=0;" vertex="1" parent="1">
          <mxGeometry x="436.5" y="-19" width="165" height="30" as="geometry" />
        </mxCell>
      </root>
    </mxGraphModel>
  </diagram>
</mxfile>
